<svg xmlns="http://www.w3.org/2000/svg" viewBox="0 0 576 512">
<path d="M512,30.9H64c-35.3,0-64,28.7-64,64v320c0,35.3,28.7,64,64,64h448c35.3,0,64-28.7,64-64v-320C576,59.6,547.3,30.9,512,30.9z
	 M528,414.9c0,8.8-7.2,16-16,16H64c-8.8,0-16-7.2-16-16v-320c0-8.8,7.2-16,16-16h448c8.8,0,16,7.2,16,16V414.9z"/>
<path d="M222.9,196.6c4.8,0,9.3,2.4,12,6.3l80.1,116.6c3.1,4.5,3.4,10.3,0.9,15c-2.5,4.7-7.5,7.8-12.9,7.8H186.5h-43.7H99
	c-5.6,0-10.6-3.1-13-8c-2.5-4.9-1.9-10.8,1.4-15.3l43.7-58.3c2.7-3.6,7.1-5.8,11.7-5.8c4.6,0,8.9,2.2,11.7,5.8l8.7,11.7l47.7-69.5
	C213.6,199,218.1,196.6,222.9,196.6L222.9,196.6z"/>
<circle cx="113.6" cy="196.6" r="29.1"/>
<path d="M456,230.9h-80c-13.3,0-24,10.7-24,24s10.7,24,24,24h80c13.3,0,24-10.7,24-24S469.3,230.9,456,230.9z"/>
<path d="M456,142.1h-80c-13.3,0-24,10.7-24,24s10.7,24,24,24h80c13.3,0,24-10.7,24-24S469.3,142.1,456,142.1z"/>
<path d="M456,319.6h-80c-13.3,0-24,10.7-24,24s10.7,24,24,24h80c13.3,0,24-10.7,24-24S469.3,319.6,456,319.6z"/>
</svg>
